<?xml version="1.0" encoding="UTF-8"?>
<svg width="59px" height="56px" viewBox="0 0 59 56" version="1.1" xmlns="http://www.w3.org/2000/svg" xmlns:xlink="http://www.w3.org/1999/xlink">
    <!-- Generator: Sketch 54.1 (76490) - https://sketchapp.com -->
    <title>Artboard</title>
    <desc>Created with Sketch.</desc>
    <g id="Artboard" stroke="none" stroke-width="1" fill="none" fill-rule="evenodd">
        <path d="M15.3540002,35.2507505 C19.2348415,32.2066592 19.2348415,32.2066592 23.7080004,26.6253752 C28.1811593,21.0440913 19.9677871,18 15.3540002,18 C10.7402133,18 7,21.861712 7,26.6253752 C7,31.3890385 11.4731589,38.2948418 15.3540002,35.2507505 Z" id="Oval" fill="#353535"></path>
        <path d="M17.5,28.8370375 C18.6428476,28.1205453 20,27.7542298 20,26.4185188 C20,25.0828077 18.8807119,24 17.5,24 C16.1192881,24 15,25.0828077 15,26.4185188 C15,27.7542298 16.3571524,29.5535298 17.5,28.8370375 Z" id="Oval" fill="#FFFFFF"></path>
        <path d="M42.3540002,35.2507505 C46.2348415,32.2066592 46.2348415,32.2066592 50.7080004,26.6253752 C55.1811593,21.0440913 46.9677871,18 42.3540002,18 C37.7402133,18 34,21.861712 34,26.6253752 C34,31.3890385 38.4731589,38.2948418 42.3540002,35.2507505 Z" id="Oval" fill="#353535" transform="translate(43.000000, 27.000000) scale(-1, 1) translate(-43.000000, -27.000000) "></path>
        <path d="M32.5511819,39.4324446 L33.7997068,41.4537182 L34.7003738,42.2611293 C35.111608,42.6297888 35.1461215,43.2620176 34.777462,43.6732517 C34.5493855,43.9276676 34.2071979,44.0480242 33.8700736,43.9924046 C31.9748502,43.6797263 30.6814973,43.5233871 29.9900148,43.5233871 C29.3019178,43.5233871 28.0147618,43.6781991 26.1285468,43.9878232 L26.1285494,43.9878391 C25.5835496,44.0773014 25.0692165,43.7080153 24.9797542,43.1630155 C24.9240686,42.8237813 25.0465341,42.4797249 25.3040377,42.2519692 L26.2065508,41.4537182 L27.441647,39.4403234 C28.3080067,38.028025 30.1552242,37.5854543 31.5675226,38.4518141 C31.9676063,38.6972413 32.304522,39.0331196 32.5511819,39.4324446 Z" id="Triangle" fill="#353535" transform="translate(30.000000, 41.000000) rotate(180.000000) translate(-30.000000, -41.000000) "></path>
        <path d="M30,43 L30,47.5" id="Line" stroke="#353535" stroke-linecap="square"></path>
        <path d="M41.5,28.8745604 C43.0491104,29.4773822 44,27.7833529 44,26.4372802 C44,25.0912075 42.8807119,24 41.5,24 C40.1192881,24 39,25.0912075 39,26.4372802 C39,27.7833529 39.9508896,28.2717385 41.5,28.8745604 Z" id="Oval" fill="#FFFFFF"></path>
        <path d="M24,49 C26.66334,48.3333333 28.66334,48 30,48 C31.33666,48 33.33666,48.3333333 36,49" id="Line-2" stroke="#353535" stroke-linecap="round"></path>
        <path d="M3.45047096,15.3510058 C2.8186007,14.1600123 2.23344503,12.9775587 1.6275796,11.9672835 C-0.644722718,8.17823937 5.82235136,-0.525609183 11.1275796,1.96728346 C14.1144595,3.37079911 16.7493505,4.61309001 18.4818256,6.41642339 L3.45047096,15.3510058 Z" id="Combined-Shape" fill="#353535" transform="translate(9.820853, 8.438296) rotate(11.000000) translate(-9.820853, -8.438296) "></path>
        <path d="M42.450471,15.3510058 C41.8186007,14.1600123 41.233445,12.9775587 40.6275796,11.9672835 C38.3552773,8.17823937 44.8223514,-0.525609183 50.1275796,1.96728346 C53.1144595,3.37079911 55.7493505,4.61309001 57.4818256,6.41642339 L42.450471,15.3510058 Z" id="Combined-Shape" fill="#353535" transform="translate(48.820853, 8.438296) scale(-1, 1) rotate(11.000000) translate(-48.820853, -8.438296) "></path>
    </g>
</svg>