<?xml version="1.0" encoding="UTF-8"?>
<svg width="59px" height="56px" viewBox="0 0 59 56" version="1.1" xmlns="http://www.w3.org/2000/svg" xmlns:xlink="http://www.w3.org/1999/xlink">
    <!-- Generator: Sketch 54.1 (76490) - https://sketchapp.com -->
    <title>Artboard</title>
    <desc>Created with Sketch.</desc>
    <g id="Artboard" stroke="none" stroke-width="1" fill="none" fill-rule="evenodd">
        <path d="M15.3540002,35.2507505 C19.2348415,32.2066592 19.2348415,32.2066592 23.7080004,26.6253752 C28.1811593,21.0440913 19.9677871,18 15.3540002,18 C10.7402133,18 7,21.861712 7,26.6253752 C7,31.3890385 11.4731589,38.2948418 15.3540002,35.2507505 Z" id="Oval" fill="#353535"></path>
        <path d="M42.3540002,35.2507505 C46.2348415,32.2066592 46.2348415,32.2066592 50.7080004,26.6253752 C55.1811593,21.0440913 46.9677871,18 42.3540002,18 C37.7402133,18 34,21.861712 34,26.6253752 C34,31.3890385 38.4731589,38.2948418 42.3540002,35.2507505 Z" id="Oval" fill="#353535" transform="translate(43.000000, 27.000000) scale(-1, 1) translate(-43.000000, -27.000000) "></path>
        <path d="M32.5511819,39.4324446 L33.7997068,41.4537182 L34.7003738,42.2611293 C35.111608,42.6297888 35.1461215,43.2620176 34.777462,43.6732517 C34.5493855,43.9276676 34.2071979,44.0480242 33.8700736,43.9924046 C31.9748502,43.6797263 30.6814973,43.5233871 29.9900148,43.5233871 C29.3019178,43.5233871 28.0147618,43.6781991 26.1285468,43.9878232 L26.1285494,43.9878391 C25.5835496,44.0773014 25.0692165,43.7080153 24.9797542,43.1630155 C24.9240686,42.8237813 25.0465341,42.4797249 25.3040377,42.2519692 L26.2065508,41.4537182 L27.441647,39.4403234 C28.3080067,38.028025 30.1552242,37.5854543 31.5675226,38.4518141 C31.9676063,38.6972413 32.304522,39.0331196 32.5511819,39.4324446 Z" id="Triangle" fill="#353535" transform="translate(30.000000, 41.000000) rotate(180.000000) translate(-30.000000, -41.000000) "></path>
        <path d="M30,43 L30,47.5" id="Line" stroke="#353535" stroke-linecap="square"></path>
        <path d="M24,49 C26.66334,48.3333333 28.66334,48 30,48 C31.33666,48 33.33666,48.3333333 36,49" id="Line-2" stroke="#353535" stroke-linecap="round"></path>
        <path d="M2.83651406,15.9445322 C2.07616233,14.5529137 1.39550706,13.1348359 0.686489823,11.9525559 C-1.58581249,8.16351185 4.88126159,-0.540336699 10.1864898,1.95255594 C13.1188311,3.33044427 15.7119204,4.55294182 17.4449348,6.3034694 C17.3219814,6.34956156 17.2017719,6.40850891 17.0860857,6.48072316 L3.68618437,14.8452826 C3.26550142,15.1078837 2.97459587,15.5029773 2.83651406,15.9445322 Z" id="Combined-Shape" fill="#353535" transform="translate(8.831863, 8.727695) rotate(11.000000) translate(-8.831863, -8.727695) "></path>
        <path d="M43.8365141,15.9445322 C43.0761623,14.5529137 42.3955071,13.1348359 41.6864898,11.9525559 C39.4141875,8.16351185 45.8812616,-0.540336699 51.1864898,1.95255594 C54.1188311,3.33044427 56.7119204,4.55294182 58.4449348,6.3034694 C58.3219814,6.34956156 58.2017719,6.40850891 58.0860857,6.48072316 L44.6861844,14.8452826 C44.2655014,15.1078837 43.9745959,15.5029773 43.8365141,15.9445322 Z" id="Combined-Shape" fill="#353535" transform="translate(49.831863, 8.727695) scale(-1, 1) rotate(11.000000) translate(-49.831863, -8.727695) "></path>
        <path d="M42.5,29.8370375 C43.6428476,29.1205453 43.6428476,28.7542298 45,27.4185188 C46.3571524,26.0828077 43.8807119,25 42.5,25 C41.1192881,25 40,26.0828077 40,27.4185188 C40,28.7542298 41.3571524,30.5535298 42.5,29.8370375 Z" id="Oval" fill="#FFFFFF" transform="translate(42.696905, 27.500000) scale(-1, 1) translate(-42.696905, -27.500000) "></path>
        <path d="M15.5,29.8370375 C16.6428476,29.1205453 16.6428476,28.7542298 18,27.4185188 C19.3571524,26.0828077 16.8807119,25 15.5,25 C14.1192881,25 13,26.0828077 13,27.4185188 C13,28.7542298 14.3571524,30.5535298 15.5,29.8370375 Z" id="Oval" fill="#FFFFFF"></path>
    </g>
</svg>