<?xml version="1.0" encoding="UTF-8"?>
<svg width="61px" height="52px" viewBox="0 0 61 52" version="1.1" xmlns="http://www.w3.org/2000/svg" xmlns:xlink="http://www.w3.org/1999/xlink">
    <!-- Generator: Sketch 54.1 (76490) - https://sketchapp.com -->
    <title>Logo/Panda/Master</title>
    <desc>Created with Sketch.</desc>
    <g id="Logo/Panda/Master" stroke="none" stroke-width="1" fill="none" fill-rule="evenodd">
        <g id="Group" transform="translate(8.000000, 18.000000)">
            <path d="M8.35400019,17.2507505 C12.2348415,14.2066592 12.2348415,14.2066592 16.7080004,8.62537525 C21.1811593,3.04409126 12.9677871,0 8.35400019,0 C3.74021328,0 0,3.86171204 0,8.62537525 C0,13.3890385 4.47315892,20.2948418 8.35400019,17.2507505 Z" id="Oval" fill="#353535"></path>
            <path d="M8.31747132,11.8370375 C9.37687798,11.1205453 9.37687798,10.7542298 10.6349426,9.41851877 C11.8930073,8.08280774 9.59737539,7 8.31747132,7 C7.03756725,7 6,8.08280774 6,9.41851877 C6,10.7542298 7.25806466,12.5535298 8.31747132,11.8370375 Z" id="Oval" fill="#FFFFFF"></path>
        </g>
        <path d="M43.3540002,35.2507505 C47.2348415,32.2066592 47.2348415,32.2066592 51.7080004,26.6253752 C56.1811593,21.0440913 47.9677871,18 43.3540002,18 C38.7402133,18 35,21.861712 35,26.6253752 C35,31.3890385 39.4731589,38.2948418 43.3540002,35.2507505 Z" id="Oval" fill="#353535" transform="translate(44.000000, 27.000000) scale(-1, 1) translate(-44.000000, -27.000000) "></path>
        <path d="M33.5511819,39.4324446 L34.7997068,41.4537182 L35.7003738,42.2611293 C36.111608,42.6297888 36.1461215,43.2620176 35.777462,43.6732517 C35.5493855,43.9276676 35.2071979,44.0480242 34.8700736,43.9924046 C32.9748502,43.6797263 31.6814973,43.5233871 30.9900148,43.5233871 C30.3019178,43.5233871 29.0147618,43.6781991 27.1285468,43.9878232 L27.1285494,43.9878391 C26.5835496,44.0773014 26.0692165,43.7080153 25.9797542,43.1630155 C25.9240686,42.8237813 26.0465341,42.4797249 26.3040377,42.2519692 L27.2065508,41.4537182 L28.441647,39.4403234 C29.3080067,38.028025 31.1552242,37.5854543 32.5675226,38.4518141 C32.9676063,38.6972413 33.304522,39.0331196 33.5511819,39.4324446 Z" id="Triangle" fill="#353535" transform="translate(31.000000, 41.000000) rotate(180.000000) translate(-31.000000, -41.000000) "></path>
        <path d="M31,43 L31,48" id="Line" stroke="#353535" stroke-linecap="square"></path>
        <path d="M25,50 C27.66334,48.6666667 29.66334,48 31,48 C32.33666,48 34.33666,48.6666667 37,50" id="Line-2" stroke="#353535" stroke-linecap="round"></path>
        <path d="M43.3174713,29.8370375 C44.376878,29.1205453 44.376878,28.7542298 45.6349426,27.4185188 C46.8930073,26.0828077 44.5973754,25 43.3174713,25 C42.0375673,25 41,26.0828077 41,27.4185188 C41,28.7542298 42.2580647,30.5535298 43.3174713,29.8370375 Z" id="Oval" fill="#FFFFFF" transform="translate(43.500000, 27.500000) scale(-1, 1) translate(-43.500000, -27.500000) "></path>
        <path d="M7.57512762,12.9271302 C6.01862729,11.8431694 5,10.0405413 5,8 C5,4.6862915 7.6862915,2 11,2 C13.8767789,2 16.2806889,4.02459187 16.8646099,6.72665525 C15.7515941,6.38806522 14.5009862,6.53552013 13.4613382,7.23677161 L9.31615029,10.0327361 C8.29744839,10.7198592 7.69586132,11.7939594 7.57512762,12.9271302 Z" id="Combined-Shape" fill="#353535"></path>
        <path d="M45.5751276,12.9271302 C44.0186273,11.8431694 43,10.0405413 43,8 C43,4.6862915 45.6862915,2 49,2 C51.8767789,2 54.2806889,4.02459187 54.8646099,6.72665525 C53.7515941,6.38806522 52.5009862,6.53552013 51.4613382,7.23677161 L47.3161503,10.0327361 C46.2974484,10.7198592 45.6958613,11.7939594 45.5751276,12.9271302 Z" id="Combined-Shape" fill="#353535" transform="translate(48.932305, 7.463565) scale(-1, 1) translate(-48.932305, -7.463565) "></path>
    </g>
</svg>