<?xml version="1.0" encoding="UTF-8"?>
<svg width="101px" height="76px" viewBox="0 0 101 76" version="1.1" xmlns="http://www.w3.org/2000/svg" xmlns:xlink="http://www.w3.org/1999/xlink">
    <!-- Generator: Sketch 54.1 (76490) - https://sketchapp.com -->
    <title>octo</title>
    <desc>Created with Sketch.</desc>
    <g id="Page-1" stroke="none" stroke-width="1" fill="none" fill-rule="evenodd">
        <g id="Artboard" transform="translate(-57.000000, -121.000000)">
            <g id="octo" transform="translate(58.000000, 121.000000)">
                <polygon id="Polygon" stroke="#000000" points="36.5 1 62.3093975 11.8370491 73 38 62.3093975 64.1629509 36.5 75 10.6906025 64.1629509 0 38 10.6906025 11.8370491"></polygon>
                <polygon id="Polygon" stroke="#000000" points="62.5 1 88.3093975 11.8370491 99 38 88.3093975 64.1629509 62.5 75 36.6906025 64.1629509 26 38 36.6906025 11.8370491"></polygon>
                <g id="Group" transform="translate(1.000000, 0.000000)">
                    <path d="M36.8235661,1.08094385 L60.4157004,1.08094385" id="Line" stroke="#000000" stroke-linecap="square"></path>
                    <path d="M36.2358811,75 L61.2113963,75" id="Line-2" stroke="#000000" stroke-linecap="square"></path>
                    <path d="M10.5589799,11.9067866 L35.4781613,11.9067866" id="Line-3" stroke="#000000" stroke-linecap="square"></path>
                    <path d="M4.22857908e-13,37.8330346 L24.75598,37.8330346" id="Line-4" stroke="#000000" stroke-linecap="square"></path>
                    <path d="M10.4567072,63.5838495 L34.7359727,63.5838495" id="Line-5" stroke="#000000" stroke-linecap="square"></path>
                    <path d="M62.436522,11.9067866 L85.8724133,11.9067866" id="Line-6" stroke="#000000" stroke-linecap="square"></path>
                    <path d="M72.5466582,37.8330346 L97,37.8330346" id="Line-7" stroke="#000000" stroke-linecap="square"></path>
                    <path d="M61.5,63.775687 L85.8724133,63.5838495" id="Line-8" stroke="#000000" stroke-linecap="square"></path>
                    <polygon id="Rectangle" fill-opacity="0" fill="#A7A7A7" points="10.3535809 12.9637604 33.7748734 12.9637604 24.0813066 36.7245805 0.557596992 36.7245805"></polygon>
                    <path d="M35.4796873,2.80031733 L17.3599397,10.3228197 L34.9710032,10.3228197 L44.2674465,6.39058517 L35.4796873,2.80031733 Z" id="Rectangle" stroke="#18AC77" fill-opacity="0" fill="#A7A7A7"></path>
                    <path d="M1.30545289,39.4411213 L10.6740395,62.0942556 L33.0276102,62.0942556 L23.6784564,39.4411213 L1.30545289,39.4411213 Z" id="Rectangle" stroke="#FF0000" fill-opacity="0" fill="#A7A7A7"></path>
                    <path d="M53.9461862,2.51412927 L43.5032565,2.7126652 L48.4992499,4.71705171 L53.9461862,2.51412927 Z M55.2896878,2.48858726 L55.1723951,2.42379575 L55.4236618,2.48604021 L55.2896878,2.48858726 Z" id="Rectangle" stroke="#18AC77"></path>
                    <path d="M63.7388288,13.4971694 L72.884275,36.1980468 L95.1298381,36.1980468 L85.9864871,13.4971694 L63.7388288,13.4971694 Z" id="Rectangle" stroke="#4200FF" fill-opacity="0" fill="#A7A7A7"></path>
                    <polygon id="Rectangle" points="14.4789523 64.6487262 34.7359727 64.6487262 45.5069416 69.2025666 35.4781613 73.4378012"></polygon>
                </g>
                <path d="M63.370286,66.1008276 L54.4466252,69.7528377 L62.5241996,72.4673235 L78.3596776,66.1008276 L63.370286,66.1008276 Z" id="Rectangle" stroke="#FFDB51" fill-opacity="0" fill="#A7A7A7"></path>
                <polygon id="Rectangle" fill-opacity="0" fill="#A7A7A7" points="73.0659945 39 97 39 87.6772036 63 64 62.9647576"></polygon>
                <polygon id="Triangle" points="49.4901171 71 57 74 42 74"></polygon>
            </g>
        </g>
    </g>
</svg>