<?xml version="1.0" encoding="UTF-8"?>
<svg width="371px" height="237px" viewBox="0 0 371 237" version="1.1" xmlns="http://www.w3.org/2000/svg" xmlns:xlink="http://www.w3.org/1999/xlink">
    <!-- Generator: Sketch 51.3 (57544) - http://www.bohemiancoding.com/sketch -->
    <title>graphic</title>
    <desc>Created with Sketch.</desc>
    <defs>
        <path d="M46.3455396,136.313859 L122,119 L122,226 C115.607083,222.716856 111.010613,220.676734 108.21059,219.879634 C97.3096044,216.776384 80.0832835,207.24625 73.8444613,205.332011 C73.8444613,205.332011 73.8444613,205.332011 73.8444613,205.332011 L73.8444613,205.332011 C49.3849641,197.827176 34.8514529,172.730092 40.5167231,147.780257 C40.8393299,146.35947 40.8503578,144.970125 40.5498008,143.612222 C39.5509889,139.099634 41.3802415,136.682046 46.0375585,136.359459 L46.0375601,136.359482 C46.1412494,136.3523 46.2442212,136.337046 46.3455396,136.313859 Z" id="path-1"></path>
        <filter x="-16.9%" y="-8.6%" width="129.0%" height="123.3%" filterUnits="objectBoundingBox" id="filter-2">
            <feMorphology radius="0.5" operator="dilate" in="SourceAlpha" result="shadowSpreadOuter1"></feMorphology>
            <feOffset dx="-2" dy="3" in="shadowSpreadOuter1" result="shadowOffsetOuter1"></feOffset>
            <feGaussianBlur stdDeviation="3" in="shadowOffsetOuter1" result="shadowBlurOuter1"></feGaussianBlur>
            <feColorMatrix values="0 0 0 0 0.659810799   0 0 0 0 0.255955303   0 0 0 0 0.0957668097  0 0 0 1 0" type="matrix" in="shadowBlurOuter1"></feColorMatrix>
        </filter>
    </defs>
    <g id="graphics" stroke="none" stroke-width="1" fill="none" fill-rule="evenodd">
        <g id="graphic" fill-rule="nonzero">
            <g id="Rectangle-5">
                <use fill="black" fill-opacity="1" filter="url(#filter-2)" xlink:href="#path-1"></use>
                <use fill="#FFFFFF" xlink:href="#path-1"></use>
            </g>
            <path d="M2,0 L130,0 L130,237 L100,237 C44.771525,237 6.76353751e-15,192.228475 0,137 L0,2 C-1.3527075e-16,0.8954305 0.8954305,2.02906125e-16 2,0 Z" id="Rectangle-5" fill="#FF4C05"></path>
            <rect id="Rectangle-5" fill="#9942ED" x="130" y="0" width="119" height="237"></rect>
            <path d="M241,0 L271,-1.42108547e-14 C326.228475,-2.4356161e-14 371,44.771525 371,100 L371,235 C371,236.104569 370.104569,237 369,237 L241,237 L241,0 Z" id="Rectangle-5" fill="#4CA2EC"></path>
        </g>
    </g>
</svg>